<svg  version="1.0" xmlns="http://www.w3.org/2000/svg"  width="300.000000pt" height="239.000000pt" viewBox="0 0 300.000000 239.000000"  preserveAspectRatio="xMidYMid meet">  <g transform="translate(0.000000,239.000000) scale(0.100000,-0.100000)" fill="#2e2b5f" stroke="none"> <path d="M1454 2207 c-17 -12 -43 -30 -58 -41 -18 -12 -30 -15 -39 -9 -18 15 -113 16 -139 2 -32 -17 -63 -52 -65 -75 -1 -10 -3 -57 -4 -102 -3 -76 -5 -85 -29 -103 -34 -27 -234 -224 -276 -273 -39 -46 -44 -85 -15 -131 21 -33 255 -270 295 -298 24 -17 25 -22 25 -109 -1 -151 34 -186 173 -175 68 6 70 5 115 -29 57 -43 99 -42 147 5 l32 31 85 -6 c77 -6 86 -4 112 16 40 31 48 62 48 162 0 83 1 88 25 105 28 20 188 178 265 261 53 58 61 93 35 141 -17 31 -263 278 -298 298 -25 16 -26 20 -27 107 -2 121 -3 126 -39 156 -36 30 -101 38 -162 20 -30 -9 -37 -7 -60 14 -56 53 -103 63 -146 33z m193 -129 c62 -62 113 -121 113 -130 0 -10 -2 -18 -3 -18 -2 0 -55 52 -117 115 -74 75 -121 115 -135 115 -14 0 -61 -40 -135 -115 -62 -63 -115 -115 -117 -115 -1 0 -3 8 -3 17 0 10 51 68 112 130 148 148 138 148 285 1z m-287 53 c0 -18 -28 -30 -80 -33 l-55 -3 0 -565 0 -565 45 -3 c48 -3 90 -19 90 -35 0 -5 -30 -8 -70 -5 -114 6 -105 -48 -108 591 -2 399 1 559 9 579 12 30 27 36 104 41 28 2 53 4 58 5 4 1 7 -2 7 -7z m426 -6 c43 -9 45 -31 42 -612 -3 -639 6 -585 -108 -591 -40 -3 -70 0 -70 5 0 16 42 32 90 35 l45 3 0 565 0 565 -55 3 c-51 3 -80 15 -80 33 0 7 88 3 136 -6z m-176 -101 c52 -53 107 -102 123 -110 l27 -15 0 -369 -1 -370 -22 -11 c-12 -7 -68 -57 -124 -112 -119 -116 -96 -118 -233 17 -47 46 -95 88 -107 95 -22 11 -22 11 -22 376 l0 364 27 21 c15 12 71 64 124 116 53 52 100 94 105 94 4 0 51 -43 103 -96z m-460 -182 c0 -9 -63 -80 -140 -157 -77 -77 -140 -147 -140 -155 0 -8 63 -78 140 -155 77 -77 140 -148 140 -157 0 -10 -2 -18 -5 -18 -2 0 -71 68 -152 151 -99 101 -149 159 -151 176 -3 21 21 51 145 178 81 84 151 153 156 154 4 0 7 -7 7 -17z m866 -132 c108 -110 150 -158 152 -178 2 -23 -19 -49 -148 -179 -83 -84 -153 -153 -155 -153 -3 0 -5 8 -5 18 0 9 63 80 140 157 77 77 140 147 140 155 0 8 -63 78 -140 155 -77 77 -140 148 -140 157 0 10 1 18 3 18 2 0 71 -68 153 -150z m-867 -175 c0 -137 -4 -217 -10 -221 -13 -8 -219 195 -219 216 0 17 200 220 217 220 10 0 12 -52 12 -215z m839 111 c56 -57 102 -109 102 -116 0 -10 -98 -120 -138 -154 -7 -6 -27 -26 -44 -43 -17 -18 -34 -30 -39 -28 -4 3 -8 104 -8 225 0 166 3 220 12 220 7 0 58 -47 115 -104z m-483 -746 c12 0 67 47 137 117 87 87 118 112 118 97 0 -25 -229 -254 -255 -254 -26 0 -255 229 -255 254 0 15 31 -10 118 -97 70 -70 125 -117 137 -117z"/> <path d="M1365 1862 c-18 -2 -39 -15 -53 -32 -22 -28 -22 -35 -23 -252 0 -402 -2 -373 27 -407 35 -42 85 -43 121 -3 24 25 25 34 25 130 -1 101 -1 103 24 112 14 6 35 10 48 10 25 0 60 33 70 67 8 26 -16 78 -43 93 -11 5 -36 10 -55 10 -38 0 -38 0 -40 62 -1 29 3 34 29 39 17 4 46 7 66 8 25 1 43 9 62 29 36 37 34 71 -4 108 -29 28 -34 29 -127 29 -53 0 -110 -2 -127 -3z m233 -44 c7 -7 12 -24 12 -38 0 -42 -17 -50 -102 -50 l-78 0 0 -90 0 -89 68 -3 67 -3 3 -33 c5 -49 -11 -62 -79 -62 l-58 0 -3 -132 -3 -133 -28 -9 c-19 -7 -34 -7 -45 0 -15 10 -17 42 -20 320 -1 170 0 314 3 321 6 18 246 18 263 1z"/> <path d="M859 765 c-36 -20 -39 -33 -40 -147 0 -101 3 -112 45 -135 16 -9 23 -7 39 13 10 14 22 36 26 51 9 35 31 42 31 11 0 -30 26 -67 55 -78 13 -5 39 -4 62 2 26 6 52 6 75 0 24 -7 46 -6 70 3 22 7 42 9 52 3 9 -5 23 -5 33 0 21 10 41 9 65 -2 11 -5 25 -2 39 8 19 13 25 13 50 0 35 -18 70 -18 94 0 16 12 24 11 52 -2 25 -12 36 -13 45 -4 7 7 17 8 30 1 12 -7 25 -6 39 2 16 8 27 8 45 -1 19 -11 26 -10 49 8 l27 21 27 -20 c22 -16 32 -18 55 -9 19 7 33 7 47 0 13 -7 25 -7 38 0 14 7 27 7 46 -2 37 -17 64 13 71 78 3 27 14 72 24 99 18 50 14 78 -12 96 -17 11 -216 3 -231 -9 -8 -7 -17 -8 -23 -2 -5 5 -29 13 -53 19 -35 7 -49 6 -67 -5 -16 -11 -28 -13 -41 -6 -33 18 -86 21 -113 7 -22 -12 -34 -12 -71 -1 -37 12 -48 11 -72 -1 -16 -8 -36 -11 -45 -8 -16 7 -175 17 -252 15 -51 0 -70 -28 -70 -101 0 -42 -4 -59 -13 -59 -10 0 -14 17 -16 57 -3 77 -19 98 -79 99 -26 0 -60 3 -77 7 -19 5 -39 2 -56 -8z m96 -45 c0 -10 -12 -16 -32 -18 -29 -3 -33 -7 -33 -33 0 -24 4 -29 25 -29 16 0 25 -6 25 -15 0 -9 -9 -15 -25 -15 -23 0 -25 -3 -25 -50 0 -43 -3 -50 -20 -50 -19 0 -20 7 -20 108 0 60 3 112 7 116 4 4 28 6 53 4 32 -2 45 -7 45 -18z m82 -74 l-6 -95 32 -3 c21 -2 33 -9 35 -20 3 -15 -4 -18 -47 -18 l-51 0 0 115 c0 111 1 115 21 115 21 0 22 -3 16 -94z m201 77 c-2 -12 -13 -18 -33 -18 -26 -1 -30 -4 -33 -33 -3 -31 -1 -33 24 -30 20 2 29 -2 32 -14 3 -14 -3 -18 -27 -18 -28 0 -31 -3 -31 -29 0 -26 4 -30 33 -33 20 -2 32 -8 32 -18 0 -11 -12 -15 -50 -15 l-50 0 -2 100 c-1 55 0 106 2 113 3 7 23 12 55 12 44 0 51 -3 48 -17z m85 -20 l15 -38 16 38 c11 25 23 37 36 37 25 0 25 0 -6 -62 l-26 -50 26 -50 c31 -60 32 -68 7 -68 -13 0 -24 11 -32 35 -7 19 -16 35 -19 35 -3 0 -12 -16 -19 -35 -8 -24 -19 -35 -32 -35 -25 0 -24 11 6 69 l24 49 -24 47 c-30 55 -31 65 -6 65 12 0 24 -13 34 -37z m225 25 c19 -19 16 -183 -4 -202 -20 -21 -53 -20 -76 1 -25 22 -27 173 -2 197 18 19 65 21 82 4z m160 -1 c6 -6 10 -58 11 -115 0 -94 -1 -102 -19 -102 -15 0 -19 9 -22 48 -2 32 -7 47 -17 47 -10 0 -15 -13 -15 -45 -1 -34 -5 -45 -18 -48 -16 -3 -18 7 -18 112 l0 116 44 0 c24 0 48 -6 54 -13z m156 -9 c31 -44 7 -108 -40 -108 -22 0 -24 -4 -24 -51 0 -41 -3 -50 -16 -47 -14 3 -17 19 -16 113 1 61 2 111 2 113 0 1 18 2 39 2 30 0 44 -6 55 -22z m102 -5 c3 -16 15 -62 25 -105 23 -94 23 -98 0 -98 -13 0 -20 10 -25 31 -8 39 -39 37 -44 -4 -2 -19 -9 -27 -23 -27 -10 0 -19 3 -19 8 0 7 39 188 46 210 7 22 34 12 40 -15z m94 -5 l12 -33 14 33 c9 21 21 32 34 32 25 0 25 2 -5 -66 -17 -38 -25 -75 -25 -111 0 -46 -3 -54 -17 -51 -14 3 -19 17 -24 73 -3 39 -13 84 -22 102 -22 41 -21 53 2 53 12 0 23 -11 31 -32z"/> <path d="M1497 703 c-4 -3 -7 -40 -7 -80 0 -66 2 -74 18 -71 14 3 18 16 20 69 2 47 -1 69 -11 77 -8 7 -17 9 -20 5z"/> <path d="M1649 708 c-8 -24 -4 -68 6 -68 22 0 40 30 29 48 -10 15 -33 28 -35 20z"/> <path d="M1806 703 c-3 -4 -6 -19 -6 -35 0 -39 34 -35 38 3 3 25 -18 46 -32 32z"/> </g> </svg> 
